<svg width="100" height="100" viewBox="0 0 100 100" fill="none" xmlns="http://www.w3.org/2000/svg">
<rect width="100" height="100" rx="50" fill="#24BEE0" fill-opacity="0.1"/>
<path d="M30.2814 44.5311C29.8501 44.5311 29.5001 44.8811 29.5001 45.3124C29.5001 45.7436 29.8501 46.0936 30.2814 46.0936C30.7126 46.0936 31.0626 45.7436 31.0626 45.3124C31.0626 44.8811 30.7126 44.5311 30.2814 44.5311Z" fill="#24BEE0"/>
<path d="M49.0312 46.0936H45.1249V42.1874C45.1249 41.756 44.7751 41.4061 44.3437 41.4061H39.6562C39.2247 41.4061 38.8749 41.756 38.8749 42.1874V46.0936H34.9686C34.5372 46.0936 34.1874 46.4435 34.1874 46.8749V51.5624C34.1874 51.9938 34.5372 52.3437 34.9686 52.3437H38.8749V56.2499C38.8749 56.6813 39.2247 57.0312 39.6562 57.0312H44.3437C44.7751 57.0312 45.1249 56.6813 45.1249 56.2499V52.3437H49.0312C49.4626 52.3437 49.8124 51.9938 49.8124 51.5624V46.8749C49.8124 46.4435 49.4626 46.0936 49.0312 46.0936ZM48.2499 50.7812H44.3437C43.9123 50.7812 43.5624 51.131 43.5624 51.5624V55.4687H40.4374V51.5624C40.4374 51.131 40.0876 50.7812 39.6562 50.7812H35.7499V47.6562H39.6562C40.0876 47.6562 40.4374 47.3063 40.4374 46.8749V42.9686H43.5624V46.8749C43.5624 47.3063 43.9123 47.6562 44.3437 47.6562H48.2499V50.7812Z" fill="#24BEE0"/>
<path d="M54.0608 32.4016C52.7959 33.2229 51.3269 33.6569 49.8127 33.6569C47.4969 33.6569 45.314 32.6379 43.8238 30.8611C43.8237 30.8611 43.8237 30.8611 43.8237 30.8611C43.3647 30.3139 42.7 30 42.0002 30C41.3003 30 40.6356 30.3139 40.1766 30.861C38.6863 32.6378 36.5034 33.6568 34.1877 33.6568C32.6734 33.6568 31.2044 33.2227 29.9396 32.4016C28.3948 31.399 26.3751 32.5794 26.3751 34.399V50.3343C26.3751 53.8789 27.5122 57.3421 29.5765 60.0859C34.6836 66.8765 41.4084 69.8148 41.6921 69.9366C41.7905 69.9788 41.8954 70 42.0002 70C42.105 70 42.21 69.9788 42.3082 69.9366C42.592 69.8148 49.3168 66.8766 54.4237 60.0868C56.4883 57.3421 57.6252 53.8786 57.6252 50.3343V34.3991C57.6252 32.5793 55.6051 31.399 54.0608 32.4016ZM53.1751 59.1475C48.928 64.794 43.3575 67.7049 41.9997 68.358C40.6413 67.7065 35.0816 64.8064 30.8252 59.1467C28.9631 56.6719 27.9376 53.5424 27.9376 50.3344V34.3991C27.9376 33.8043 28.594 33.3911 29.0887 33.7122C30.6076 34.6982 32.3708 35.2194 34.1877 35.2194C36.9666 35.2194 39.5859 33.9969 41.3737 31.8652C41.5374 31.67 41.7599 31.5625 42.0002 31.5625C42.2405 31.5625 42.4629 31.67 42.6266 31.8652C44.4146 33.9968 47.0338 35.2194 49.8127 35.2194C51.6296 35.2194 53.3927 34.6982 54.9116 33.7122C55.3984 33.396 56.0627 33.7953 56.0627 34.3991V50.3343C56.0627 53.542 55.0373 56.6719 53.1751 59.1475Z" fill="#24BEE0"/>
<path d="M54.6695 36.4595C54.4622 36.3131 54.1968 36.2766 53.9576 36.3613C52.7822 36.7784 51.5558 36.9898 50.3126 36.9898C47.6272 36.9898 45.0374 35.9984 43.0202 34.1983C42.7239 33.9339 42.2762 33.9339 41.9799 34.1983C39.9628 35.9984 37.3729 36.9898 34.6875 36.9898C33.4443 36.9898 32.2179 36.7784 31.0425 36.3613C30.8031 36.2766 30.5379 36.3131 30.3305 36.4595C30.1234 36.6059 30.0001 36.8439 30.0001 37.0976V42.3953C30.0001 42.8267 30.3499 43.1766 30.7813 43.1766C31.2127 43.1766 31.5626 42.8267 31.5626 42.3953V38.1537C32.5827 38.4185 33.6298 38.5523 34.6876 38.5523C37.531 38.5523 40.2794 37.581 42.5001 35.8038C44.7208 37.581 47.4693 38.5523 50.3127 38.5523C51.3705 38.5523 52.4175 38.4185 53.4377 38.1537V50.5422C53.4377 53.0775 52.6351 55.5394 51.1772 57.4751C48.223 61.4045 44.6149 63.8375 42.5075 65.0354C40.3834 63.8218 36.7521 61.3703 33.8227 57.4763C32.3652 55.5395 31.5625 53.0769 31.5625 50.5422V48.6453C31.5625 48.2139 31.2127 47.864 30.7813 47.864C30.3498 47.864 30 48.2139 30 48.6453V50.5422C30 53.4137 30.9142 56.21 32.5742 58.4157C35.8594 62.7831 39.9711 65.4274 42.1297 66.615C42.2469 66.6795 42.3765 66.7117 42.5062 66.7117C42.6351 66.7117 42.7642 66.6799 42.8809 66.616C45.0228 65.4454 49.111 62.8232 52.4256 58.4145C54.0857 56.2101 55 53.4144 55 50.5422V37.0976C55 36.8438 54.8767 36.6059 54.6695 36.4595Z" fill="#24BEE0"/>
</svg>
